<?xml version="1.0" encoding="utf-8"?>
<!-- Generator: Adobe Illustrator 19.0.0, SVG Export Plug-In . SVG Version: 6.00 Build 0)  -->
<svg version="1.1" id="Layer_1" xmlns="http://www.w3.org/2000/svg" xmlns:xlink="http://www.w3.org/1999/xlink" x="0px" y="0px"
	 viewBox="7 -8 30 30" style="enable-background:new 7 -8 30 30;" xml:space="preserve">
<style type="text/css">
	.st0{fill:#B2B2B2;}
	.st1{enable-background:new    ;}
	.st2{fill:#1DA1F2;}
</style>
<g>
	<circle class="st0" cx="22" cy="7" r="15"/>
	<g class="st1">
		<path class="st2" d="M28.2,4.9c0,0.1,0,0.2,0,0.4c0,3.6-2.7,7.7-7.7,7.7c-1.5,0-3-0.4-4.2-1.2c0.2,0,0.4,0,0.7,0
			c1.3,0,2.4-0.4,3.4-1.2c-1.2,0-2.2-0.8-2.5-1.9c0.2,0,0.3,0,0.5,0c0.2,0,0.5,0,0.7-0.1c-1.2-0.3-2.2-1.3-2.2-2.7c0,0,0,0,0,0
			c0.4,0.2,0.8,0.3,1.2,0.3C17.4,5.9,17,5.1,17,4.1c0-0.5,0.1-1,0.4-1.4c1.3,1.6,3.3,2.7,5.6,2.8c0-0.2-0.1-0.4-0.1-0.6
			c0-1.5,1.2-2.7,2.7-2.7c0.8,0,1.5,0.3,2,0.9c0.6-0.1,1.2-0.3,1.7-0.7C29,3.1,28.6,3.6,28,4c0.5-0.1,1.1-0.2,1.6-0.4
			C29.2,4.1,28.8,4.6,28.2,4.9z"/>
	</g>
</g>
</svg>
